# xmcd
#
# Track frame offsets: 
#        150
#        19115
#        28428
#        45105
#        69518
#        87100
#        125240
#        143605
#        166948
#        181068
#        195675
#        211960
#
# Disc length: 3050 seconds
#
# Revision: 2
# Processed by: cddbd v1.5.2PL0 Copyright (c) Steve Scherf et al.
# Submitted via: ExactAudioCopyFreeDBPlugin 1.0
#
DISCID=9f0be80c
DTITLE=The Blues Wire - Bulldog Boogie
DYEAR=1993
DGENRE=Blues
TTITLE0=Everyday I Have The Blues
TTITLE1=Ooh Lawdy My Baby
TTITLE2=Bulldog Boogie
TTITLE3=Sadie
TTITLE4=Shake Your Moneymaker
TTITLE5=The Feeling Is Gone
TTITLE6=Baby What You Want Me To Do
TTITLE7=Cutt Off My Right Arm
TTITLE8=I Wonder Why
TTITLE9=The Mean Thing
TTITLE10=I Don't Worry
TTITLE11=Late Night Drive
EXTD=
EXTT0=
EXTT1=
EXTT2=
EXTT3=
EXTT4=
EXTT5=
EXTT6=
EXTT7=
EXTT8=
EXTT9=
EXTT10=
EXTT11=
PLAYORDER=
